<svg id="arrow_faq_1" xmlns="http://www.w3.org/2000/svg" viewBox="0 0 10 6"><defs><style>.cls-1{fill:#02cdd1;}</style></defs><title>arrow_faq_1</title><path id="arrow_faq_1-2" data-name="arrow_faq_1" class="cls-1" d="M310.76,393.25a0.82,0.82,0,0,0-1.18,0l-2,2h0L306,396.93l-1.59-1.63h0l-2-2a0.82,0.82,0,0,0-1.18,0,0.88,0.88,0,0,0,0,1.21l0.06,0.06h0l3.45,3.55,0.07,0.07,0.47,0.49a0.86,0.86,0,0,0,1.41,0l0.48-.49,3.52-3.62h0l0.06-.06A0.88,0.88,0,0,0,310.76,393.25Z" transform="translate(-301 -393)"/></svg>