<svg id="arrow_faq_3" xmlns="http://www.w3.org/2000/svg" viewBox="0 0 6 10"><defs><style>.cls-1{fill:#02cdd1;}</style></defs><title>arrow_faq_3</title><path id="arrow_faq_3-2" data-name="arrow_faq_3" class="cls-1" d="M303.25,391.24a0.82,0.82,0,0,0,0,1.18l2,2h0l1.63,1.59-1.63,1.59h0l-2,2a0.82,0.82,0,0,0,0,1.18,0.88,0.88,0,0,0,1.21,0l0.06-.06h0l3.55-3.45,0.07-.07,0.49-.47a0.86,0.86,0,0,0,0-1.41l-0.49-.48-3.62-3.52h0l-0.06-.06A0.88,0.88,0,0,0,303.25,391.24Z" transform="translate(-303 -391)"/></svg>