<svg id="arrow_button_2" xmlns="http://www.w3.org/2000/svg" viewBox="0 0 8 12"><defs><style>.cls-1{fill:#1b1b1b;}</style></defs><title>arrow_button_2</title><path id="arrow_button_2-2" data-name="arrow_button_2" class="cls-1" d="M302.33,390.29a0.92,0.92,0,0,0,0,1.41l2.73,2.39h0l2.18,1.91-2.18,1.91h0l-2.73,2.39a0.92,0.92,0,0,0,0,1.41,1.27,1.27,0,0,0,1.62,0l0.08-.07h0l4.74-4.14,0.1-.08,0.65-.57a1,1,0,0,0,0-1.69l-0.65-.57L304,390.36h0l-0.08-.07A1.27,1.27,0,0,0,302.33,390.29Z" transform="translate(-302 -390)"/></svg>