<svg id="icon_help" xmlns="http://www.w3.org/2000/svg" viewBox="0 0 16 16"><defs><style>.cls-1{fill:#02cdd1;}</style></defs><title>icon_help</title><path id="icon_help-2" data-name="icon_help" class="cls-1" d="M306,388a8,8,0,1,0,8,8A8,8,0,0,0,306,388Zm0.64,12.5a1,1,0,0,1-.56.55,1.06,1.06,0,0,1-.42.08,1.09,1.09,0,0,1-.42-0.08,1,1,0,0,1-.34-0.22,1,1,0,0,1-.22-0.33,1.11,1.11,0,0,1,0-.83,1,1,0,0,1,.22-0.34,1.06,1.06,0,0,1,.34-0.22,1,1,0,0,1,.42-0.08,1,1,0,0,1,.42.08,1.11,1.11,0,0,1,.34.22,1.05,1.05,0,0,1,.31.75A1,1,0,0,1,306.64,400.5Zm1.88-6.39a2.61,2.61,0,0,1-.38.67,2.9,2.9,0,0,1-.51.5l-0.52.4a4.06,4.06,0,0,0-.42.36,0.72,0.72,0,0,0-.21.4l-0.16,1h-1.18L305,396.32a0.93,0.93,0,0,1,.09-0.58,1.75,1.75,0,0,1,.36-0.46,4.9,4.9,0,0,1,.51-0.4,4.4,4.4,0,0,0,.53-0.42,2.19,2.19,0,0,0,.41-0.51,1.33,1.33,0,0,0,.16-0.68,1,1,0,0,0-.09-0.45,1,1,0,0,0-.26-0.34,1.18,1.18,0,0,0-.4-0.22,1.6,1.6,0,0,0-.51-0.08,2.25,2.25,0,0,0-.68.09,2.45,2.45,0,0,0-.47.2l-0.33.2a0.45,0.45,0,0,1-.24.09,0.38,0.38,0,0,1-.36-0.21l-0.46-.72a4.91,4.91,0,0,1,.52-0.4,3.73,3.73,0,0,1,1.33-.55,4.06,4.06,0,0,1,.83-0.08,3.46,3.46,0,0,1,1.11.17,2.47,2.47,0,0,1,.86.48,2.13,2.13,0,0,1,.55.75,2.42,2.42,0,0,1,.2,1A2.5,2.5,0,0,1,308.52,394.11Z" transform="translate(-298 -388)"/></svg>