<svg id="icon_index_4" xmlns="http://www.w3.org/2000/svg" viewBox="0 0 50 36"><defs><style>.cls-1{fill:#02cdd1;}</style></defs><title>icon_index_4</title><path id="icon_index_4-2" data-name="icon_index_4" class="cls-1" d="M281,402.94c0.11-.56.2-1.12,0.34-1.66a10.08,10.08,0,0,1,4.24-5.9l0.48-.32a7,7,0,0,1,8.77-8.91l0.33-.61c2.84-5.05,7.15-7.65,12.94-7.54a13.87,13.87,0,0,1,13.21,11.72,1.31,1.31,0,0,0,1.15,1.28,11.59,11.59,0,0,1,8.45,10,3.71,3.71,0,0,0,.1.42v1.76c-0.1.58-.19,1.15-0.31,1.73a11.61,11.61,0,0,1-10.24,9c-1.78.14-3.58,0.09-5.37,0.09-8,0-16,0-24.07,0a10,10,0,0,1-9.66-7.56c-0.16-.59-0.24-1.21-0.36-1.81S281,403.49,281,402.94Zm24.26,7.94H319a10.4,10.4,0,0,0,1.8-.13,8.62,8.62,0,0,0,.57-16.86l-1.66-.4a1.43,1.43,0,0,1-1.18-1.42c0-.55-0.12-1.1-0.19-1.65a10.87,10.87,0,0,0-20.71-2.85c-0.21.44-.4,0.89-0.65,1.31a1.15,1.15,0,0,1-1.44.62c-0.21,0-.4-0.15-0.6-0.18a13.11,13.11,0,0,0-2.34-.37,3.85,3.85,0,0,0-3.52,5.22c0.14,0.37.27,0.73,0.39,1.11a1.38,1.38,0,0,1-.59,1.7l-1.4.88a6.74,6.74,0,0,0-3.32,5.61,7,7,0,0,0,7.17,7.42h14Z" transform="translate(-281 -378)"/></svg>