<svg id="icon_index_2" xmlns="http://www.w3.org/2000/svg" viewBox="0 0 50 50"><defs><style>.cls-1{fill:#02cdd1;}</style></defs><title>icon_index_2</title><path id="icon_index_2-2" data-name="icon_index_2" class="cls-1" d="M281,398.85c1.06-2.23,2.11-4.46,3.18-6.68,1.25-2.6,3.9-8.06,4-8.28l-2.62.83a1.34,1.34,0,0,1-1.82-.83,1.39,1.39,0,0,1,1-1.78,39.93,39.93,0,0,1,8.29-2.23c2.72-.42,5.46-0.69,8.2-1a0.48,0.48,0,0,0,.48-0.37,4.52,4.52,0,0,1,2.65-2.74,0.45,0.45,0,0,0,.33-0.51c0-.93,0-1.87,0-2.8A1.39,1.39,0,0,1,306,371a1.36,1.36,0,0,1,1.42,1.43c0,0.93,0,1.87,0,2.8a0.49,0.49,0,0,0,.35.55,4.51,4.51,0,0,1,2.65,2.74,0.49,0.49,0,0,0,.53.36,58,58,0,0,1,16.34,3.2,1.4,1.4,0,0,1,1,1.88,1.3,1.3,0,0,1-1.62.82c-0.91-.27-1.8-0.57-2.77-0.88,0.07,0.18,4.47,9.33,6.66,13.78a4.09,4.09,0,0,1,.36,2.61,9.58,9.58,0,0,1-18.89-.16,3.8,3.8,0,0,1,.35-2.37c2.37-4.83,7.17-14.76,7.26-15-1.17-.2-2.29-0.43-3.42-0.57-1.79-.22-3.59-0.37-5.38-0.57a0.45,0.45,0,0,0-.54.33,4.46,4.46,0,0,1-2.55,2.46,0.48,0.48,0,0,0-.34.55c0,8,0,26,0,27.17,0.24,0,4,0,5.64,0a1.84,1.84,0,0,1,1.61.76c1.51,1.94,3.06,3.85,4.58,5.78a1.4,1.4,0,0,1-1.16,2.29c-4.94,0-20.93,0-24,0a1.45,1.45,0,0,1-1.46-.8,1.44,1.44,0,0,1,.27-1.64q2.26-2.82,4.5-5.66a1.71,1.71,0,0,1,1.48-.7c1.64,0,5.41,0,5.73,0,0-.21,0-18.3,0-27.17a0.51,0.51,0,0,0-.36-0.58,4.45,4.45,0,0,1-2.5-2.44,0.44,0.44,0,0,0-.51-0.32,64.59,64.59,0,0,0-8.82,1.15c0.08,0.18.13,0.34,0.21,0.49,2.26,4.65,4.48,9.32,6.8,13.94a5.11,5.11,0,0,1,.36,3.83,9.57,9.57,0,0,1-18.72-1.05,2.78,2.78,0,0,0-.09-0.33v-0.89Zm15.46-1.22-5.91-12.17-5.91,12.17h11.82Zm19.14,0h11.8l-5.9-12.15Zm-0.37,20.57c-0.78-1-1.52-1.9-2.23-2.84a0.87,0.87,0,0,0-.78-0.37c-3.66,0-12.3-.16-12.81.08a21.78,21.78,0,0,0-2.58,3.13h18.4Zm-31.14-17.72c0.4,2.68,3.49,5,6.57,5s6.06-2.44,6.35-5H284.09Zm43.87,0H315a6.72,6.72,0,0,0,6.67,5C324.61,405.36,327.52,403.09,328,400.47Zm-23.82-20.36a1.89,1.89,0,1,0,1.92-1.9A1.91,1.91,0,0,0,304.14,380.11Z" transform="translate(-281 -371)"/></svg>