<svg id="icon_menu_mob" xmlns="http://www.w3.org/2000/svg" viewBox="0 0 25 22"><defs><style>.cls-1{fill:#02cdd1;}</style></defs><title>icon_menu_mob</title><path id="icon_menu_mob-2" data-name="icon_menu_mob" class="cls-1" d="M312,407H295a1.5,1.5,0,0,1-1.5-1.5h0A1.5,1.5,0,0,1,295,404h17a1.5,1.5,0,0,1,1.5,1.5h0A1.5,1.5,0,0,1,312,407Zm6.5-11h0a1.5,1.5,0,0,0-1.5-1.5H295a1.5,1.5,0,0,0-1.5,1.5h0a1.5,1.5,0,0,0,1.5,1.5h22A1.5,1.5,0,0,0,318.5,396Zm0-9.5h0A1.5,1.5,0,0,0,317,385H295a1.5,1.5,0,0,0-1.5,1.5h0A1.5,1.5,0,0,0,295,388h22A1.5,1.5,0,0,0,318.5,386.5Z" transform="translate(-293.5 -385)"/></svg>