<svg id="icon_email" xmlns="http://www.w3.org/2000/svg" viewBox="0 0 48 48"><defs><style>.cls-1{fill:#02cdd1;}</style></defs><title>icon_email</title><path id="icon_email-2" data-name="icon_email" class="cls-1" d="M306,372a24,24,0,1,0,24,24A24,24,0,0,0,306,372Zm13.49,31.07a2.36,2.36,0,0,1-2.6,2.57h-22a2.33,2.33,0,0,1-2.41-2.38q0-7.26,0-14.52a2.34,2.34,0,0,1,2.41-2.39H317a2.35,2.35,0,0,1,2.46,2.48Q319.49,396,319.49,403.07Zm-3.41-12.42,0.41-.3v12.29h-21V390.36c0.16,0.11.28,0.18,0.39,0.27q4.86,3.82,9.72,7.65a0.52,0.52,0,0,0,.79,0Q311.23,394.44,316.08,390.65Z" transform="translate(-282 -372)"/></svg>