<svg id="icon_check" xmlns="http://www.w3.org/2000/svg" viewBox="0 0 20 20"><defs><style>.cls-1{fill:#02cdd1;}</style></defs><title>icon_check</title><path id="icon_check-2" data-name="icon_check" class="cls-1" d="M1275.59,1265.59a10,10,0,1,0,10,10A10,10,0,0,0,1275.59,1265.59Zm0,18a8,8,0,1,1,8-8A8,8,0,0,1,1275.59,1283.59Zm3.85-9.19-3.19,3.19-0.78.78a0.9,0.9,0,0,1-1.32-.06l-0.73-.73-1.19-1.19a1,1,0,1,1,1.41-1.41l1.19,1.19L1278,1273A1,1,0,1,1,1279.44,1274.4Z" transform="translate(-1265.59 -1265.59)"/></svg>