<svg id="icon_index_1" xmlns="http://www.w3.org/2000/svg" viewBox="0 0 41 50"><defs><style>.cls-1{fill:#02cdd1;}</style></defs><title>icon_index_1</title><path id="icon_index_1-2" data-name="icon_index_1" class="cls-1" d="M325.77,379.56l-19.31-8.46a1.1,1.1,0,0,0-.91,0l-19.31,8.46a1.25,1.25,0,0,0-.73,1.15v18.76c0,11.87,9.19,21.53,20.5,21.53s20.5-9.67,20.5-21.53V380.71A1.25,1.25,0,0,0,325.77,379.56Zm-2.27,19.85c0,10.29-7.85,18.65-17.5,18.65s-17.5-8.37-17.5-18.65V381.84l17.5-7.78,17.5,7.78v17.57Zm-6.72-7.75-10.16,10.16a2.6,2.6,0,0,1-4.24,0l-5.16-5.16a1.5,1.5,0,0,1,2.12-2.12l5.16,5.16,10.16-10.16A1.5,1.5,0,0,1,316.78,391.65Z" transform="translate(-285.5 -371)"/></svg>