<svg id="icon_eng" xmlns="http://www.w3.org/2000/svg" viewBox="0 0 512 512"><defs><style>.cls-1{fill:#f0f0f0;}.cls-2{fill:#d80027;}.cls-3{fill:#0052b4;}</style></defs><title>icon_eng</title><circle id="eng_3" class="cls-1" cx="256" cy="256" r="256"/><g id="eng_2"><path class="cls-2" d="M244.87,256H512a256.28,256.28,0,0,0-8.82-66.78H244.87V256Z"/><path class="cls-2" d="M244.87,122.43H474.43a257.35,257.35,0,0,0-59.07-66.78H244.87v66.78Z"/><path class="cls-2" d="M256,512a254.9,254.9,0,0,0,159.36-55.65H96.64A254.9,254.9,0,0,0,256,512Z"/><path class="cls-2" d="M37.57,389.57H474.43a254.47,254.47,0,0,0,28.76-66.78H8.82A254.47,254.47,0,0,0,37.57,389.57Z"/></g><path id="eng_1" class="cls-3" d="M118.58,40h23.33l-21.7,15.76,8.29,25.51L106.8,65.49,85.1,81.25l7.16-22a257.41,257.41,0,0,0-49.65,55.34h7.47l-13.81,10Q33,130,30.08,135.53l6.6,20.3-12.31-8.94q-4.59,9.72-8.37,19.87l7.27,22.37H50.09l-21.7,15.76,8.29,25.51L15,214.64,2,224.08A258.47,258.47,0,0,0,0,256H256V0A254.79,254.79,0,0,0,118.58,40ZM128.5,230.4l-21.7-15.76L85.1,230.4l8.29-25.51-21.7-15.76H98.51l8.29-25.51,8.29,25.51h26.82l-21.7,15.76Zm-8.29-100.08,8.29,25.51-21.7-15.76L85.1,155.83l8.29-25.51-21.7-15.76H98.52L106.8,89l8.29,25.51h26.82ZM220.33,230.4l-21.7-15.76-21.7,15.76,8.29-25.51-21.7-15.76h26.82l8.29-25.51,8.29,25.51h26.82L212,204.89ZM212,130.32l8.29,25.51-21.7-15.76-21.7,15.76,8.29-25.51-21.7-15.76h26.82L198.63,89l8.29,25.51h26.82Zm0-74.57,8.29,25.51-21.7-15.76-21.7,15.76,8.29-25.51L163.52,40h26.82l8.29-25.51L206.92,40h26.82Z"/></svg>