<svg id="soc_insta" xmlns="http://www.w3.org/2000/svg" xmlns:xlink="http://www.w3.org/1999/xlink" viewBox="0 0 48 48"><defs><style>.cls-1{fill:url(#linear-gradient);}.cls-2{fill:#fff;fill-rule:evenodd;}</style><linearGradient id="linear-gradient" x1="7.03" y1="40.97" x2="40.97" y2="7.03" gradientUnits="userSpaceOnUse"><stop offset="0" stop-color="#fec053"/><stop offset="0.33" stop-color="#f2203e"/><stop offset="0.65" stop-color="#b729a8"/><stop offset="1" stop-color="#5342d6"/></linearGradient></defs><title>soc_instagram</title><rect id="insta_1" class="cls-1" width="48" height="48" rx="24" ry="24"/><path id="insta_2" class="cls-2" d="M315.68,396a9.68,9.68,0,1,0-9.68,9.68,9.67,9.67,0,0,0,9.68-9.68h0Zm-0.18-11a1.56,1.56,0,1,0,1.56,1.56,1.56,1.56,0,0,0-1.56-1.56h0Zm-17.4-2.24h15.82a5.33,5.33,0,0,1,5.32,5.32v15.82a5.33,5.33,0,0,1-5.32,5.32H298.09a5.33,5.33,0,0,1-5.32-5.32V388.09a5.34,5.34,0,0,1,5.32-5.32h0ZM313.91,381H298.09a7.11,7.11,0,0,0-7.09,7.09v15.82a7.11,7.11,0,0,0,7.09,7.09h15.82a7.11,7.11,0,0,0,7.09-7.09V388.09a7.11,7.11,0,0,0-7.09-7.09h0Zm-15.58,15a7.67,7.67,0,1,1,7.67,7.67,7.67,7.67,0,0,1-7.67-7.67h0Z" transform="translate(-282 -372)"/></svg>