<svg id="soc_vk" xmlns="http://www.w3.org/2000/svg" viewBox="0 0 48 48"><defs><style>.cls-1{fill:#54769b;}.cls-2{fill:#fff;}</style></defs><title>soc_vk</title><rect id="vk_1" class="cls-1" width="48" height="48" rx="24" ry="24"/><path id="vk_2" class="cls-2" d="M317.25,389.95c0.16-.55,0-0.95-0.78-0.95h-2.58a1.11,1.11,0,0,0-1.12.73A21.57,21.57,0,0,1,309.6,395a1.88,1.88,0,0,1-1.2.79c-0.16,0-.4-0.19-0.4-0.74v-5.11c0-.66-0.19-0.95-0.74-0.95H303.2a0.62,0.62,0,0,0-.66.59c0,0.62.93,0.76,1,2.51v3.8c0,0.83-.15,1-0.48,1-0.87,0-3-3.21-4.26-6.89a1.11,1.11,0,0,0-1.15-1H295.1c-0.74,0-.88.35-0.88,0.73,0,0.68.87,4.07,4.07,8.55,2.13,3.06,5.13,4.72,7.87,4.72,1.64,0,1.84-.37,1.84-1v-2.31c0-.74.16-0.88,0.67-0.88s1,0.19,2.57,1.67c1.75,1.75,2,2.53,3,2.53h2.58a0.78,0.78,0,0,0,.89-1.1,11.07,11.07,0,0,0-2.18-3c-0.6-.71-1.5-1.48-1.78-1.86a0.79,0.79,0,0,1,0-1.15S316.92,391.45,317.25,389.95Z" transform="translate(-282 -372)"/></svg>