<svg id="soc_g" xmlns="http://www.w3.org/2000/svg" viewBox="0 0 48 48"><defs><style>.cls-1{fill:#dc4437;}.cls-2{fill:#fff;}</style></defs><title>soc_g</title><rect id="g_1" class="cls-1" width="48" height="48" rx="24" ry="24"/><path id="g_2" class="cls-2" d="M306.18,405a9,9,0,1,1,0-18,8.64,8.64,0,0,1,6,2.35l-2.54,2.54h0a4.93,4.93,0,0,0-3.48-1.36,5.48,5.48,0,0,0,0,11c2.69,0,4.53-1.54,4.91-3.66h-4.91v-3.51h8.47a10.26,10.26,0,0,1,.17,1.89C314.82,401.34,311.38,405,306.18,405Z" transform="translate(-282 -372)"/></svg>