<svg viewBox="0 0 192 50" xmlns="http://www.w3.org/2000/svg" xmlns:xlink="http://www.w3.org/1999/xlink"><linearGradient id="a" gradientTransform="matrix(1 0 0 -1 -1109.38 -431.28)" gradientUnits="userSpaceOnUse" x1="1395.11" x2="1511.38" y1="-833.49" y2="-833.49"><stop offset="0" stop-color="#00e2ff"/><stop offset="1" stop-color="#02cdd1"/></linearGradient><linearGradient id="b" gradientTransform="matrix(1 0 0 -1 -1109.38 -431.28)" gradientUnits="userSpaceOnUse" x1="1362.58" x2="1388.98" y1="-833.51" y2="-833.51"><stop offset="0" stop-color="#ffcb40"/><stop offset="1" stop-color="#fd41ae"/></linearGradient><linearGradient id="c" gradientTransform="matrix(1 0 0 -1 -1109.38 -431.28)" gradientUnits="userSpaceOnUse" x1="1319.38" x2="1351.35" y1="-814.74" y2="-814.74"><stop offset="0" stop-color="#5464eb"/><stop offset="1" stop-color="#c51ae6"/></linearGradient><linearGradient id="d" gradientTransform="matrix(1 0 0 -1 -1109.38 -431.28)" gradientUnits="userSpaceOnUse" x1="1332.79" x2="1359.2" y1="-833.49" y2="-833.49"><stop offset="0" stop-color="#7981ef"/><stop offset="1" stop-color="#ce4beb"/></linearGradient><path d="m289.72 387.39a13.67 13.67 0 0 1 4.17-2.89 12.56 12.56 0 0 1 5.15-1.08 12.87 12.87 0 0 1 6.61 1.84 14 14 0 0 1 5 4.93.51.51 0 0 0 .1.26 4 4 0 0 1 .43 1.74 3.49 3.49 0 0 1 -1.1 2.62 3.63 3.63 0 0 1 -2.65 1.08 3.57 3.57 0 0 1 -1.9-.52 3.45 3.45 0 0 1 -1.3-1.43 7.15 7.15 0 0 0 -2.17-2.21 5.36 5.36 0 0 0 -3-.85 5.91 5.91 0 0 0 -2.26.44 5.57 5.57 0 0 0 -3.08 3.08 5.91 5.91 0 0 0 -.44 2.26v11a5.84 5.84 0 0 0 .44 2.3 6.05 6.05 0 0 0 1.19 1.85 5.4 5.4 0 0 0 1.86 1.26 6 6 0 0 0 4.49 0 5.83 5.83 0 0 0 1.85-1.26 6.28 6.28 0 0 0 1.28-1.85 5.53 5.53 0 0 0 .47-2.3.3.3 0 0 0 -.3-.3 3.67 3.67 0 0 1 -3.75-3.59q0-.08 0-.17a3.38 3.38 0 0 1 1.07-2.53 3.66 3.66 0 0 1 2.68-1h3.93a3.57 3.57 0 0 1 2.65 1 3.42 3.42 0 0 1 1 2.53v4.05a13.07 13.07 0 0 1 -1.92 7 13.29 13.29 0 0 1 -5.06 4.81 13.75 13.75 0 0 1 -2.92 1.11 13.17 13.17 0 0 1 -6.49 0 16.93 16.93 0 0 1 -3-1.11 13.51 13.51 0 0 1 -5.1-4.82 12.92 12.92 0 0 1 -1.95-7v-11a13.37 13.37 0 0 1 1.11-5 13.88 13.88 0 0 1 2.91-4.25zm53 13.92a14.85 14.85 0 0 0 -3.07-4.5 14.39 14.39 0 0 0 -4.49-3 13.6 13.6 0 0 0 -5.42-1.11 15.34 15.34 0 0 0 -5.58 1.26 14.61 14.61 0 0 0 -4.5 3 14.14 14.14 0 0 0 .09 20 13.79 13.79 0 0 0 4.49 2.95 14.41 14.41 0 0 0 5.49 1 13.91 13.91 0 0 0 10-4.17 14.78 14.78 0 0 0 3-4.47 14.1 14.1 0 0 0 0-11zm-6.6 8.28a7.58 7.58 0 0 1 -1.49 2.24 6.93 6.93 0 0 1 -2.21 1.53 6.71 6.71 0 0 1 -2.71.56 6.5 6.5 0 0 1 -2.69-.56 7.37 7.37 0 0 1 -2.2-1.52 7.28 7.28 0 0 1 -1.53-2.24 6.71 6.71 0 0 1 -.56-2.71 6.86 6.86 0 0 1 .56-2.77 6.94 6.94 0 0 1 1.53-2.21 7.21 7.21 0 0 1 2.2-1.46 6.81 6.81 0 0 1 2.68-.53 7 7 0 0 1 4.91 2.12 7.22 7.22 0 0 1 2 4.85 6.72 6.72 0 0 1 -.52 2.7zm37.2-25a3.5 3.5 0 0 0 -2.51-1 3.57 3.57 0 0 0 -2.53 1 4 4 0 0 0 -.8 1.19 3.25 3.25 0 0 0 -.3 1.37v6.85a.3.3 0 0 1 -.43.26 13.69 13.69 0 0 0 -6.48-1.57 13.28 13.28 0 0 0 -5.42 1.14 15.19 15.19 0 0 0 -4.53 3.07 14.57 14.57 0 0 0 -3.09 4.5 13.32 13.32 0 0 0 -1.14 5.43 13.13 13.13 0 0 0 1.19 5.48 15 15 0 0 0 3.13 4.5 14.73 14.73 0 0 0 4.53 3 13.42 13.42 0 0 0 10.72 0 15.21 15.21 0 0 0 4.53-3.07 14.56 14.56 0 0 0 3.09-4.5 13.31 13.31 0 0 0 1.14-5.43v-19.55a3.42 3.42 0 0 0 -1.07-2.71zm-6.7 24.92a7.44 7.44 0 0 1 -3.72 3.73 6.36 6.36 0 0 1 -2.63.56 6.69 6.69 0 0 1 -2.71-.56 7.58 7.58 0 0 1 -2.23-1.49 6.93 6.93 0 0 1 -1.53-2.21 6.7 6.7 0 0 1 -.56-2.71 6.56 6.56 0 0 1 .56-2.65 7.25 7.25 0 0 1 3.76-3.76 6.8 6.8 0 0 1 5.33 0 7.23 7.23 0 0 1 2.2 1.46 6.94 6.94 0 0 1 1.53 2.21 6.87 6.87 0 0 1 .56 2.77 6.5 6.5 0 0 1 -.54 2.68zm34.72 6.11a9.26 9.26 0 0 0 .66-3.62 8.91 8.91 0 0 0 -.63-3.32 9.41 9.41 0 0 0 -1.79-2.83 8.38 8.38 0 0 0 -2.65-2 7.67 7.67 0 0 0 -3.3-.72h-6.73a1.67 1.67 0 0 1 -1.33-.55 1.84 1.84 0 0 1 -.46-1.24 1.68 1.68 0 0 1 1.63-1.73h10.41a3.28 3.28 0 0 0 2.38-1.07 3.41 3.41 0 0 0 1.07-2.5 3.61 3.61 0 0 0 -1-2.39 3.11 3.11 0 0 0 -2.45-1.12h-10.61a8.68 8.68 0 0 0 -3.39.78 8.87 8.87 0 0 0 -2.71 1.93 9.14 9.14 0 0 0 -1.82 2.8 8.56 8.56 0 0 0 -.66 3.32 9.43 9.43 0 0 0 .63 3.47 9 9 0 0 0 1.79 2.83 8.61 8.61 0 0 0 2.65 1.93 7.52 7.52 0 0 0 3.24.72h6.55a1.61 1.61 0 0 1 1.91 1.67 1.65 1.65 0 0 1 -1.91 1.73h-10.06a3.23 3.23 0 0 0 -2.38 1.19 3.75 3.75 0 0 0 -1 2.52 3.4 3.4 0 0 0 1 2.53 3.25 3.25 0 0 0 2.38 1h10.07a10 10 0 0 0 3.71-.66 8.65 8.65 0 0 0 2.88-1.84 8.55 8.55 0 0 0 1.94-2.87z" fill="url(#a)" transform="translate(-210 -371)"/><path d="m278.51 391.51a13.72 13.72 0 0 0 -2.88-4.17 14 14 0 0 0 -4.2-2.83 12.23 12.23 0 0 0 -4.95-1 12.5 12.5 0 0 0 -5.18 1.08 14.14 14.14 0 0 0 -4.2 2.89 13.19 13.19 0 0 0 -2.82 4.23 13.73 13.73 0 0 0 -1.08 5.05v20.51a3.72 3.72 0 0 0 3.68 3.76 3.63 3.63 0 0 0 2.65-1.08 3.58 3.58 0 0 0 1.1-2.68v-6.86a.3.3 0 0 1 .18-.27h.19a.3.3 0 0 1 .21.09l9.77 9.78a3.8 3.8 0 0 0 5.24 0 3.33 3.33 0 0 0 .79-1.23 4.15 4.15 0 0 0 0-2.84 3.35 3.35 0 0 0 -.79-1.23l-5-5a.3.3 0 0 1 0-.42l.09-.06a14 14 0 0 0 6.07-4.94 12.94 12.94 0 0 0 2.27-7.5 12.59 12.59 0 0 0 -1.14-5.28zm-8 9.34a5.67 5.67 0 0 1 -4.05 1.66 5.57 5.57 0 0 1 -2.26-.47 5.79 5.79 0 0 1 -1.85-1.29 6.41 6.41 0 0 1 -1.25-1.87 5.44 5.44 0 0 1 -.47-2.21 5.91 5.91 0 0 1 .44-2.26 5.43 5.43 0 0 1 1.26-1.86 6.09 6.09 0 0 1 1.85-1.19 6 6 0 0 1 4.49 0 5.67 5.67 0 0 1 1.85 1.23 6.08 6.08 0 0 1 1.25 1.85 5.84 5.84 0 0 1 -1.23 6.4z" fill="url(#b)" transform="translate(-210 -371)"/><path d="m241.15 374c-2.79-4.47-11.84-3.85-20.21 1.39s-12.9 13.12-10.13 17.57c2 3.16 7.08 3.77 12.87 2a31.13 31.13 0 0 0 7.34-3.39 29 29 0 0 0 8.23-7.52c2.67-3.72 3.52-7.47 1.9-10.05zm-11.71 15a31.31 31.31 0 0 1 -5.76 2.84c-4.82 1.79-8.94 1.71-10.34-.51-1.92-3.07 2.18-9.1 9.16-13.46s14.19-5.41 16.09-2.34c1.19 1.93 0 5-2.75 8.16a29.8 29.8 0 0 1 -6.4 5.31z" fill="url(#c)" transform="translate(-210 -371)"/><path d="m248.72 391.51a13.43 13.43 0 0 0 -2.91-4.17 14.36 14.36 0 0 0 -4.23-2.83 12.23 12.23 0 0 0 -4.95-1 11.91 11.91 0 0 0 -5.09 1.1 14.44 14.44 0 0 0 -4.17 3 14.07 14.07 0 0 0 -2.86 4.23 13 13 0 0 0 -1.11 5v20.51a3.61 3.61 0 0 0 1.07 2.68 3.53 3.53 0 0 0 2.63.97 3.63 3.63 0 0 0 2.65-1.08 3.58 3.58 0 0 0 1.1-2.68v-8.83a.3.3 0 0 1 .48-.24 8.55 8.55 0 0 0 2.62 1.41 8.8 8.8 0 0 0 2.68.44 13 13 0 0 0 5.21-1 12.87 12.87 0 0 0 4.17-2.86 13.72 13.72 0 0 0 2.77-4.23 13.22 13.22 0 0 0 1-5.16 12.59 12.59 0 0 0 -1.06-5.26z" fill="url(#d)" transform="translate(-210 -371)"/></svg>